<svg xmlns="http://www.w3.org/2000/svg" fill="none" viewBox="0 0 800 238" height="238" width="800">
<g clip-path="url(#clip0_2841_5926)">
<path fill="black" d="M770.37 237.519H29.6296C13.037 237.519 0 224.482 0 207.89V30.1121C0 13.5195 13.037 0.482422 29.6296 0.482422H770.37C786.963 0.482422 800 13.5195 800 30.1121V207.89C800 224.482 786.963 237.519 770.37 237.519Z"></path>
<path fill="#A6A6A6" d="M770.37 5.22316C784 5.22316 795.259 16.4824 795.259 30.1121V207.89C795.259 221.519 784 232.779 770.37 232.779H29.6296C16 232.779 4.74074 221.519 4.74074 207.89V30.1121C4.74074 16.4824 16 5.22316 29.6296 5.22316H770.37ZM770.37 0.482422H29.6296C13.037 0.482422 0 14.1121 0 30.1121V207.89C0 224.482 13.037 237.519 29.6296 237.519H770.37C786.963 237.519 800 224.482 800 207.89V30.1121C800 14.1121 786.963 0.482422 770.37 0.482422Z"></path>
<path stroke-miterlimit="10" stroke-width="1.18519" stroke="white" fill="white" d="M280.889 60.9266C280.889 65.6674 279.704 69.8155 276.741 72.7785C273.185 76.3341 269.037 78.1118 263.704 78.1118C258.37 78.1118 254.222 76.3341 250.667 72.7785C247.111 69.2229 245.333 65.0748 245.333 59.7415C245.333 54.4081 247.111 50.26 250.667 46.7044C254.222 43.1489 258.37 41.3711 263.704 41.3711C266.074 41.3711 268.444 41.9637 270.815 43.1489C273.185 44.3341 274.963 45.5192 276.148 47.297L273.185 50.26C270.815 47.297 267.852 46.1118 263.704 46.1118C260.148 46.1118 256.593 47.297 254.222 50.26C251.259 52.6303 250.074 56.1859 250.074 60.3341C250.074 64.4822 251.259 68.0378 254.222 70.4081C257.185 72.7785 260.148 74.5563 263.704 74.5563C267.852 74.5563 270.815 73.3711 273.778 70.4081C275.555 68.6304 276.741 66.26 276.741 63.297H263.704V58.5563H280.889V60.9266ZM308.148 46.1118H292.148V57.3711H306.963V61.5192H292.148V72.7785H308.148V77.5192H287.407V41.9637H308.148V46.1118ZM327.704 77.5192H322.963V46.1118H312.889V41.9637H337.778V46.1118H327.704V77.5192ZM354.963 77.5192V41.9637H359.704V77.5192H354.963ZM379.852 77.5192H375.111V46.1118H365.037V41.9637H389.333V46.1118H379.259V77.5192H379.852ZM436.148 72.7785C432.592 76.3341 428.444 78.1118 423.111 78.1118C417.778 78.1118 413.63 76.3341 410.074 72.7785C406.518 69.2229 404.741 65.0748 404.741 59.7415C404.741 54.4081 406.518 50.26 410.074 46.7044C413.63 43.1489 417.778 41.3711 423.111 41.3711C428.444 41.3711 432.592 43.1489 436.148 46.7044C439.704 50.26 441.481 54.4081 441.481 59.7415C441.481 65.0748 439.704 69.2229 436.148 72.7785ZM413.63 69.8155C416 72.1859 419.555 73.9637 423.111 73.9637C426.667 73.9637 430.222 72.7785 432.592 69.8155C434.963 67.4452 436.741 63.8896 436.741 59.7415C436.741 55.5933 435.555 52.0378 432.592 49.6674C430.222 47.297 426.667 45.5192 423.111 45.5192C419.555 45.5192 416 46.7044 413.63 49.6674C411.259 52.0378 409.481 55.5933 409.481 59.7415C409.481 63.8896 410.667 67.4452 413.63 69.8155ZM448 77.5192V41.9637H453.333L470.518 69.8155V41.9637H475.259V77.5192H470.518L452.148 48.4822V77.5192H448Z"></path>
<path fill="white" d="M403.556 129.666C389.333 129.666 378.074 140.333 378.074 155.148C378.074 169.37 389.333 180.629 403.556 180.629C417.778 180.629 429.037 169.963 429.037 155.148C429.037 139.74 417.778 129.666 403.556 129.666ZM403.556 169.963C395.852 169.963 389.333 163.444 389.333 154.555C389.333 145.666 395.852 139.148 403.556 139.148C411.259 139.148 417.778 145.074 417.778 154.555C417.778 163.444 411.259 169.963 403.556 169.963ZM348.445 129.666C334.222 129.666 322.963 140.333 322.963 155.148C322.963 169.37 334.222 180.629 348.445 180.629C362.667 180.629 373.926 169.963 373.926 155.148C373.926 139.74 362.667 129.666 348.445 129.666ZM348.445 169.963C340.741 169.963 334.222 163.444 334.222 154.555C334.222 145.666 340.741 139.148 348.445 139.148C356.148 139.148 362.667 145.074 362.667 154.555C362.667 163.444 356.148 169.963 348.445 169.963ZM282.667 137.37V148.037H308.148C307.556 153.963 305.185 158.703 302.222 161.666C298.667 165.222 292.741 169.37 282.667 169.37C266.667 169.37 254.815 156.926 254.815 140.926C254.815 124.926 267.259 112.481 282.667 112.481C290.963 112.481 297.482 116.037 302.222 120.185L309.926 112.481C303.408 106.555 295.111 101.814 283.259 101.814C261.926 101.814 243.556 119.592 243.556 140.926C243.556 162.259 261.926 180.037 283.259 180.037C295.111 180.037 303.408 176.481 310.519 168.777C317.63 161.666 320 151.592 320 143.889C320 141.518 320 139.148 319.408 137.37H282.667ZM551.704 145.666C549.333 139.74 543.408 129.666 530.37 129.666C517.333 129.666 506.667 139.74 506.667 155.148C506.667 169.37 517.333 180.629 531.556 180.629C542.815 180.629 549.926 173.518 552.296 169.37L544 163.444C541.037 167.592 537.482 170.555 531.556 170.555C525.63 170.555 522.074 168.185 519.111 162.851L552.889 148.629L551.704 145.666ZM517.333 153.963C517.333 144.481 525.037 139.148 530.37 139.148C534.519 139.148 538.667 141.518 539.852 144.481L517.333 153.963ZM489.482 178.259H500.741V104.185H489.482V178.259ZM471.704 135C468.741 132.037 464 129.074 458.074 129.074C445.63 129.074 433.778 140.333 433.778 154.555C433.778 168.777 445.037 179.444 458.074 179.444C464 179.444 468.741 176.481 471.111 173.518H471.704V177.074C471.704 186.555 466.37 191.889 458.074 191.889C451.556 191.889 446.815 187.148 445.63 183L436.148 187.148C439.111 193.666 446.222 201.963 458.667 201.963C471.704 201.963 482.37 194.259 482.37 175.889V130.851H471.704V135ZM458.667 169.963C450.963 169.963 444.445 163.444 444.445 154.555C444.445 145.666 450.963 139.148 458.667 139.148C466.37 139.148 472.296 145.666 472.296 154.555C472.296 163.444 466.37 169.963 458.667 169.963ZM603.259 104.185H576.593V178.259H587.852V150.407H603.259C615.704 150.407 627.556 141.518 627.556 127.296C627.556 113.074 615.704 104.185 603.259 104.185ZM603.852 139.74H587.852V114.259H603.852C612.148 114.259 616.889 121.37 616.889 126.703C616.296 133.222 611.556 139.74 603.852 139.74ZM672 129.074C663.704 129.074 655.408 132.629 652.445 140.333L662.519 144.481C664.889 140.333 668.445 139.148 672.593 139.148C678.519 139.148 683.852 142.703 684.445 148.629V149.222C682.667 148.037 677.926 146.259 673.185 146.259C662.519 146.259 651.852 152.185 651.852 162.851C651.852 172.926 660.741 179.444 670.222 179.444C677.926 179.444 681.482 175.889 684.445 172.333H685.037V178.259H695.704V149.814C694.519 136.777 684.445 129.074 672 129.074ZM670.815 169.963C667.259 169.963 661.926 168.185 661.926 163.444C661.926 157.518 668.445 155.74 673.778 155.74C678.519 155.74 680.889 156.926 683.852 158.111C682.667 165.222 676.741 169.963 670.815 169.963ZM733.037 130.851L720.593 162.851H720L706.963 130.851H695.111L714.667 175.889L703.407 200.777H714.667L744.889 130.851H733.037ZM633.482 178.259H644.741V104.185H633.482V178.259Z"></path>
<path fill="url(#paint0_linear_2841_5926)" d="M61.6296 44.9258C59.8519 46.7036 59.2593 49.6665 59.2593 53.2221V184.185C59.2593 187.741 60.4445 190.704 62.2222 192.481L62.8148 193.074L136.296 119.592V118.407L61.6296 44.9258Z"></path>
<path fill="url(#paint1_linear_2841_5926)" d="M160 144.482L135.704 120.185V118.408L160 94.1113L160.593 94.7039L189.63 111.297C197.926 116.037 197.926 123.741 189.63 128.482L160 144.482Z"></path>
<path fill="url(#paint2_linear_2841_5926)" d="M160.593 143.889L135.704 119L61.6296 193.074C64.5926 196.037 68.7408 196.037 74.0741 193.667L160.593 143.889Z"></path>
<path fill="url(#paint3_linear_2841_5926)" d="M160.593 94.1117L74.0741 44.9265C68.7408 41.9636 64.5926 42.5561 61.6296 45.5191L135.704 119.001L160.593 94.1117Z"></path>
<path fill="black" d="M160 143.297L74.0741 191.889C69.3333 194.852 65.1852 194.26 62.2222 191.889L61.6296 192.482L62.2222 193.075C65.1852 195.445 69.3333 196.038 74.0741 193.075L160 143.297Z" opacity="0.2"></path>
<path fill="black" d="M61.6296 191.889C59.8519 190.111 59.2593 187.148 59.2593 183.593V184.185C59.2593 187.741 60.4445 190.704 62.2222 192.481V191.889H61.6296ZM189.63 126.704L160 143.296L160.593 143.889L189.63 127.296C193.778 124.926 195.556 121.963 195.556 119C195.556 121.963 193.185 124.333 189.63 126.704Z" opacity="0.12"></path>
<path fill="white" d="M74.0741 45.5193L189.63 111.297C193.185 113.667 195.556 116.038 195.556 119.001C195.556 116.038 193.778 113.075 189.63 110.704L74.0741 44.9267C65.7778 40.1859 59.2593 43.7415 59.2593 53.223V53.8155C59.2593 44.9267 65.7778 40.7785 74.0741 45.5193Z" opacity="0.25"></path>
</g>
<defs>
<linearGradient gradientUnits="userSpaceOnUse" y2="151.545" x2="29.7304" y1="52.0962" x1="129.185" id="paint0_linear_2841_5926">
<stop stop-color="#00A0FF"></stop>
<stop stop-color="#00A1FF" offset="0.007"></stop>
<stop stop-color="#00BEFF" offset="0.26"></stop>
<stop stop-color="#00D2FF" offset="0.512"></stop>
<stop stop-color="#00DFFF" offset="0.76"></stop>
<stop stop-color="#00E3FF" offset="1"></stop>
</linearGradient>
<linearGradient gradientUnits="userSpaceOnUse" y2="119.006" x2="57.1081" y1="119.006" x1="200.498" id="paint1_linear_2841_5926">
<stop stop-color="#FFE000"></stop>
<stop stop-color="#FFBD00" offset="0.409"></stop>
<stop stop-color="#FFA500" offset="0.775"></stop>
<stop stop-color="#FF9C00" offset="1"></stop>
</linearGradient>
<linearGradient gradientUnits="userSpaceOnUse" y2="267.468" x2="12.2608" y1="132.606" x1="147.123" id="paint2_linear_2841_5926">
<stop stop-color="#FF3A44"></stop>
<stop stop-color="#C31162" offset="1"></stop>
</linearGradient>
<linearGradient gradientUnits="userSpaceOnUse" y2="61.7502" x2="103.467" y1="1.52504" x1="43.2415" id="paint3_linear_2841_5926">
<stop stop-color="#32A071"></stop>
<stop stop-color="#2DA771" offset="0.069"></stop>
<stop stop-color="#15CF74" offset="0.476"></stop>
<stop stop-color="#06E775" offset="0.801"></stop>
<stop stop-color="#00F076" offset="1"></stop>
</linearGradient>
<clipPath id="clip0_2841_5926">
<rect fill="white" height="238" width="800"></rect>
</clipPath>
</defs>
</svg>
